<svg display="none" xmlns="http://www.w3.org/2000/svg">
  <symbol id="facebook-ic" width="9" height="17" viewBox="0 0 9 17">
    <g>
      <path d="M6.62377 0C4.27168 0 2.66088 1.40792 2.66088 3.99443V6.22354H0V9.24668H2.66088V17H5.84158V9.24668H8.49505L8.89357 6.22354H5.84158V4.2931C5.84158 3.41809 6.08977 2.8216 7.36882 2.8216H9V0.118982C8.71786 0.0821513 7.75042 0 6.62377 0Z" fill="currentColor"/>
    </g>
  </symbol>

  <symbol id="instagram-ic" width="18" height="18" viewBox="0 0 18 18">
    <g>
      <path d="M5.20991 0C2.3366 0 0 2.34361 0 5.22393V12.7774C0 15.6577 2.3366 18 5.20991 18H12.7901C15.6634 18 18 15.6577 18 12.7774V5.22393C18 2.34361 15.6634 0 12.7901 0H5.20991ZM5.20991 1.54741H12.7901C14.835 1.54741 16.4577 3.17398 16.4577 5.22393V12.7774C16.4577 14.8273 14.835 16.4526 12.7901 16.4526H5.20991C3.16493 16.4526 1.54362 14.8273 1.54362 12.7774V5.22393C1.54362 3.17398 3.16493 1.54741 5.20991 1.54741ZM13.8308 3.0948C13.2345 3.0948 12.7514 3.57909 12.7514 4.17682C12.7514 4.77457 13.2345 5.25884 13.8308 5.25884C14.4271 5.25884 14.9102 4.77457 14.9102 4.17682C14.9102 3.57909 14.4271 3.0948 13.8308 3.0948ZM9 4.36555C6.45569 4.36555 4.37685 6.44948 4.37685 9C4.37685 11.5505 6.45569 13.6344 9 13.6344C11.5443 13.6344 13.6244 11.5505 13.6244 9C13.6244 6.44948 11.5443 4.36555 9 4.36555ZM9 5.91296C10.7102 5.91296 12.0808 7.28561 12.0808 9C12.0808 10.7144 10.7102 12.087 9 12.087C7.28978 12.087 5.92047 10.7144 5.92047 9C5.92047 7.28561 7.28978 5.91296 9 5.91296Z" fill="currentColor"/>
    </g>
  </symbol>

  <symbol id="twitter-ic" width="17" height="14" viewBox="0 0 17 14">
    <g>
      <path d="M17 1.65702C16.3748 1.93818 15.7026 2.1282 14.9972 2.21381C15.7171 1.7762 16.2699 1.0836 16.5303 0.258489C15.8565 0.663669 15.1104 0.957564 14.3156 1.11598C13.6797 0.429253 12.7733 0 11.7702 0C9.84399 0 8.28278 1.58229 8.28278 3.53421C8.28278 3.81132 8.31334 4.08115 8.37304 4.33966C5.47446 4.19246 2.90469 2.78497 1.18455 0.646903C0.884335 1.16866 0.712366 1.7757 0.712366 2.42352C0.712366 3.64988 1.32781 4.73148 2.26388 5.36553C1.69221 5.34741 1.15438 5.18836 0.684154 4.92345C0.683485 4.93834 0.68348 4.95302 0.68348 4.96781C0.68348 6.68053 1.88579 8.10868 3.48108 8.43358C3.18868 8.51437 2.88065 8.55709 2.56255 8.55709C2.33759 8.55709 2.11949 8.53552 1.90617 8.49408C2.35027 9.89816 3.63801 10.9201 5.1644 10.9487C3.96982 11.8968 2.46628 12.4616 0.832201 12.4616C0.55089 12.4616 0.273057 12.4448 0 12.4123C1.54405 13.4151 3.37699 14 5.34672 14C11.7614 14 15.2689 8.61468 15.2689 3.94383C15.2689 3.79067 15.2654 3.63855 15.2591 3.48698C15.9402 2.98827 16.5314 2.36595 16.9992 1.65705" fill="currentColor"/>
    </g>
  </symbol>
</svg>
