<svg width="98" height="20" viewBox="0 0 98 20" fill="none" xmlns="http://www.w3.org/2000/svg">
<path fill-rule="evenodd" clip-rule="evenodd" d="M10 0.5C4.75329 0.5 0.5 4.75329 0.5 10C0.5 15.2467 4.75329 19.5 10 19.5C15.2467 19.5 19.5 15.2467 19.5 10C19.5 4.75329 15.2467 0.5 10 0.5ZM9 1.5582C9.32799 1.51976 9.66169 1.5 10 1.5C14.6944 1.5 18.5 5.30558 18.5 10C18.5 14.6944 14.6944 18.5 10 18.5C9.66169 18.5 9.32799 18.4802 9 18.4418V1.5582ZM8 1.73663C4.27063 2.63603 1.5 5.99446 1.5 10C1.5 14.0055 4.27063 17.364 8 18.2634V1.73663Z" fill="url(#paint0_linear)"/>
<path d="M27.1361 6.33606C27.6161 6.33606 28.0241 6.40406 28.3601 6.54006C28.6961 6.67606 29.0241 6.86806 29.3441 7.11606C29.4321 7.18806 29.5081 7.22406 29.5721 7.22406C29.7321 7.22406 29.8361 6.98406 29.8841 6.50406H30.1601C30.1281 7.02406 30.1121 7.94406 30.1121 9.26406H29.8361C29.7481 8.74406 29.6681 8.37206 29.5961 8.14806C29.5241 7.91606 29.4041 7.69606 29.2361 7.48806C28.9961 7.17606 28.6881 6.94406 28.3121 6.79206C27.9441 6.63206 27.5441 6.55206 27.1121 6.55206C26.5921 6.55206 26.1361 6.72406 25.7441 7.06806C25.3601 7.41206 25.0601 7.90406 24.8441 8.54406C24.6281 9.17606 24.5201 9.92006 24.5201 10.7761C24.5201 11.6481 24.6361 12.3961 24.8681 13.0201C25.1001 13.6441 25.4201 14.1201 25.8281 14.4481C26.2441 14.7681 26.7121 14.9281 27.2321 14.9281C27.6321 14.9281 28.0201 14.8521 28.3961 14.7001C28.7721 14.5481 29.0681 14.3201 29.2841 14.0161C29.4441 13.7921 29.5601 13.5521 29.6321 13.2961C29.7041 13.0401 29.7721 12.6481 29.8361 12.1201H30.1121C30.1121 13.4961 30.1281 14.4561 30.1601 15.0001H29.8841C29.8601 14.7441 29.8241 14.5641 29.7761 14.4601C29.7361 14.3481 29.6761 14.2921 29.5961 14.2921C29.5321 14.2921 29.4481 14.3241 29.3441 14.3881C28.9841 14.6441 28.6401 14.8401 28.3121 14.9761C27.9841 15.1041 27.5881 15.1681 27.1241 15.1681C26.3641 15.1681 25.6961 14.9961 25.1201 14.6521C24.5521 14.3081 24.1081 13.8121 23.7881 13.1641C23.4761 12.5081 23.3201 11.7281 23.3201 10.8241C23.3201 9.94406 23.4801 9.16406 23.8001 8.48406C24.1281 7.80406 24.5801 7.27606 25.1561 6.90006C25.7401 6.52406 26.4001 6.33606 27.1361 6.33606Z" fill="white"/>
<path d="M37.0777 6.33606C37.8377 6.33606 38.5017 6.50806 39.0697 6.85206C39.6457 7.19606 40.0897 7.69606 40.4017 8.35206C40.7217 9.00006 40.8817 9.77606 40.8817 10.6801C40.8817 11.5601 40.7177 12.3401 40.3897 13.0201C40.0697 13.7001 39.6177 14.2281 39.0337 14.6041C38.4577 14.9801 37.8017 15.1681 37.0657 15.1681C36.3057 15.1681 35.6377 14.9961 35.0617 14.6521C34.4937 14.3081 34.0497 13.8121 33.7297 13.1641C33.4177 12.5081 33.2617 11.7281 33.2617 10.8241C33.2617 9.94406 33.4217 9.16406 33.7417 8.48406C34.0697 7.80406 34.5217 7.27606 35.0977 6.90006C35.6817 6.52406 36.3417 6.33606 37.0777 6.33606ZM37.0297 6.55206C36.5177 6.55206 36.0657 6.73206 35.6737 7.09206C35.2897 7.44406 34.9897 7.94006 34.7737 8.58006C34.5657 9.22006 34.4617 9.95206 34.4617 10.7761C34.4617 11.6081 34.5777 12.3401 34.8097 12.9721C35.0497 13.6041 35.3697 14.0921 35.7697 14.4361C36.1697 14.7801 36.6177 14.9521 37.1137 14.9521C37.6257 14.9521 38.0737 14.7761 38.4577 14.4241C38.8497 14.0641 39.1497 13.5641 39.3577 12.9241C39.5737 12.2841 39.6817 11.5521 39.6817 10.7281C39.6817 9.89606 39.5617 9.16406 39.3217 8.53206C39.0897 7.90006 38.7737 7.41206 38.3737 7.06806C37.9737 6.72406 37.5257 6.55206 37.0297 6.55206Z" fill="white"/>
<path d="M51.1466 6.74403C50.8666 6.76003 50.6586 6.80403 50.5226 6.87603C50.3866 6.94003 50.2946 7.05203 50.2466 7.21203C50.1986 7.36403 50.1746 7.59203 50.1746 7.89603V15.0601H49.8986L44.8586 7.27203V13.6081C44.8586 13.9201 44.8826 14.1521 44.9306 14.3041C44.9866 14.4561 45.0906 14.5681 45.2426 14.6401C45.3946 14.7041 45.6306 14.7441 45.9506 14.7601V15.0001C45.6626 14.9761 45.2546 14.9641 44.7266 14.9641C44.2466 14.9641 43.8746 14.9761 43.6106 15.0001V14.7601C43.8906 14.7441 44.0986 14.7041 44.2346 14.6401C44.3706 14.5681 44.4626 14.4561 44.5106 14.3041C44.5586 14.1441 44.5826 13.9121 44.5826 13.6081V7.77603C44.5826 7.47203 44.5586 7.25203 44.5106 7.11603C44.4626 6.98003 44.3706 6.88803 44.2346 6.84003C44.1066 6.79203 43.8986 6.76003 43.6106 6.74403V6.50403C43.8746 6.52803 44.2466 6.54003 44.7266 6.54003C45.0866 6.54003 45.3986 6.52803 45.6626 6.50403L49.8986 13.0321V7.89603C49.8986 7.58403 49.8706 7.35203 49.8146 7.20003C49.7666 7.04803 49.6666 6.94003 49.5146 6.87603C49.3626 6.80403 49.1266 6.76003 48.8066 6.74403V6.50403C49.0946 6.52803 49.5026 6.54003 50.0306 6.54003C50.5106 6.54003 50.8826 6.52803 51.1466 6.50403V6.74403Z" fill="white"/>
<path d="M62.3332 15.3481C62.1572 15.9561 61.9052 16.4121 61.5772 16.7161C61.1852 17.0761 60.6452 17.2561 59.9572 17.2561C59.5892 17.2561 59.2292 17.2001 58.8772 17.0881C58.5252 16.9761 58.0812 16.8001 57.5452 16.5601C56.9532 16.3041 56.4692 16.1121 56.0932 15.9841L55.8052 15.9001C55.4612 16.0201 55.1292 16.0801 54.8092 16.0801C54.4412 16.0801 54.2572 16.0001 54.2572 15.8401C54.2572 15.6721 54.4732 15.5881 54.9052 15.5881C55.1852 15.5881 55.4852 15.6201 55.8052 15.6841C56.0612 15.6121 56.3572 15.5001 56.6932 15.3481C56.9012 15.2521 57.0572 15.1841 57.1612 15.1441C56.4812 15.0801 55.8892 14.8681 55.3852 14.5081C54.8892 14.1481 54.5012 13.6561 54.2212 13.0321C53.9492 12.4001 53.8132 11.6641 53.8132 10.8241C53.8132 9.94406 53.9732 9.16406 54.2932 8.48406C54.6212 7.80406 55.0732 7.27606 55.6492 6.90006C56.2332 6.52406 56.8932 6.33606 57.6292 6.33606C58.3892 6.33606 59.0532 6.50806 59.6212 6.85206C60.1972 7.19606 60.6412 7.69606 60.9532 8.35206C61.2732 9.00006 61.4332 9.77606 61.4332 10.6801C61.4332 11.5121 61.2892 12.2561 61.0012 12.9121C60.7132 13.5601 60.3092 14.0801 59.7892 14.4721C59.2692 14.8561 58.6732 15.0801 58.0012 15.1441V15.1561C57.8092 15.1801 57.6412 15.2121 57.4972 15.2521C57.3612 15.3001 57.1772 15.3721 56.9452 15.4681C56.6572 15.5961 56.4172 15.6881 56.2252 15.7441C57.1132 15.9201 57.8652 16.0601 58.4812 16.1641C59.1052 16.2681 59.6212 16.3201 60.0292 16.3201C60.5972 16.3201 61.0452 16.2361 61.3732 16.0681C61.7092 15.9081 61.9692 15.6441 62.1532 15.2761L62.3332 15.3481ZM55.0132 10.7761C55.0132 11.6081 55.1292 12.3401 55.3612 12.9721C55.6012 13.6041 55.9212 14.0921 56.3212 14.4361C56.7212 14.7801 57.1692 14.9521 57.6652 14.9521C58.1772 14.9521 58.6252 14.7761 59.0092 14.4241C59.4012 14.0641 59.7012 13.5641 59.9092 12.9241C60.1252 12.2841 60.2332 11.5521 60.2332 10.7281C60.2332 9.89606 60.1132 9.16406 59.8732 8.53206C59.6412 7.90006 59.3252 7.41206 58.9252 7.06806C58.5252 6.72406 58.0772 6.55206 57.5812 6.55206C57.0692 6.55206 56.6172 6.73206 56.2252 7.09206C55.8412 7.44406 55.5412 7.94006 55.3252 8.58006C55.1172 9.22006 55.0132 9.95206 55.0132 10.7761Z" fill="white"/>
<path d="M71.5414 6.74403C71.2614 6.76003 71.0534 6.80403 70.9174 6.87603C70.7814 6.94003 70.6894 7.05203 70.6414 7.21203C70.5934 7.36403 70.5694 7.59203 70.5694 7.89603V11.5081C70.5694 12.0841 70.5294 12.5801 70.4494 12.9961C70.3774 13.4041 70.2534 13.7561 70.0774 14.0521C69.8774 14.3961 69.5814 14.6681 69.1894 14.8681C68.8054 15.0681 68.3694 15.1681 67.8814 15.1681C67.0014 15.1681 66.3294 14.9521 65.8654 14.5201C65.5134 14.1921 65.2774 13.8201 65.1574 13.4041C65.0374 12.9881 64.9774 12.3681 64.9774 11.5441V7.77603C64.9774 7.47203 64.9534 7.25203 64.9054 7.11603C64.8574 6.98003 64.7654 6.88803 64.6294 6.84003C64.5014 6.79203 64.2934 6.76003 64.0054 6.74403V6.50403C64.3414 6.52803 64.8534 6.54003 65.5414 6.54003C66.1894 6.54003 66.6974 6.52803 67.0654 6.50403V6.74403C66.7774 6.76003 66.5654 6.79203 66.4294 6.84003C66.3014 6.88803 66.2134 6.98003 66.1654 7.11603C66.1174 7.25203 66.0934 7.47203 66.0934 7.77603V11.7481C66.0934 12.3881 66.1374 12.9201 66.2254 13.3441C66.3134 13.7681 66.4934 14.1081 66.7654 14.3641C67.0454 14.6201 67.4534 14.7481 67.9894 14.7481C68.8374 14.7481 69.4334 14.4761 69.7774 13.9321C70.1214 13.3881 70.2934 12.6241 70.2934 11.6401V7.89603C70.2934 7.46403 70.2134 7.16803 70.0534 7.00803C69.9014 6.84803 69.6174 6.76003 69.2014 6.74403V6.50403C69.4894 6.52803 69.8974 6.54003 70.4254 6.54003C70.9054 6.54003 71.2774 6.52803 71.5414 6.50403V6.74403Z" fill="white"/>
<path d="M80.1892 13.4641C80.1892 13.9201 80.2172 14.4321 80.2732 15.0001C79.7292 14.9761 78.8132 14.9641 77.5252 14.9641C75.9892 14.9641 74.8292 14.9761 74.0452 15.0001V14.7601C74.3332 14.7441 74.5412 14.7121 74.6692 14.6641C74.8052 14.6161 74.8972 14.5241 74.9452 14.3881C74.9932 14.2521 75.0172 14.0321 75.0172 13.7281V7.77603C75.0172 7.47203 74.9932 7.25203 74.9452 7.11603C74.8972 6.98003 74.8052 6.88803 74.6692 6.84003C74.5412 6.79203 74.3332 6.76003 74.0452 6.74403V6.50403C74.8292 6.52803 75.9892 6.54003 77.5252 6.54003C78.7012 6.54003 79.5372 6.52803 80.0332 6.50403C79.9772 7.03203 79.9492 7.50403 79.9492 7.92003C79.9492 8.23203 79.9612 8.48003 79.9852 8.66403H79.7092C79.6532 8.14403 79.5812 7.76003 79.4932 7.51203C79.4052 7.25603 79.2572 7.07203 79.0492 6.96003C78.8412 6.84003 78.5252 6.78003 78.1012 6.78003H77.1052C76.8172 6.78003 76.6052 6.80403 76.4692 6.85203C76.3412 6.89203 76.2532 6.98003 76.2052 7.11603C76.1572 7.25203 76.1332 7.47203 76.1332 7.77603V10.6081H76.9252C77.2052 10.6081 77.4212 10.5441 77.5732 10.4161C77.7252 10.2801 77.8252 10.1241 77.8732 9.94803C77.9292 9.76403 77.9732 9.53603 78.0052 9.26403L78.0412 9.02403H78.3172C78.2932 9.36003 78.2812 9.73603 78.2812 10.1521V10.7281C78.2812 11.1361 78.3052 11.7041 78.3532 12.4321H78.0772C78.0692 12.3761 78.0452 12.1841 78.0052 11.8561C77.9652 11.5201 77.8532 11.2681 77.6692 11.1001C77.4932 10.9321 77.2452 10.8481 76.9252 10.8481H76.1332V13.7281C76.1332 14.0321 76.1572 14.2521 76.2052 14.3881C76.2532 14.5241 76.3412 14.6161 76.4692 14.6641C76.6052 14.7041 76.8172 14.7241 77.1052 14.7241H77.9812C78.4772 14.7241 78.8532 14.6601 79.1092 14.5321C79.3732 14.3961 79.5652 14.1841 79.6852 13.8961C79.8052 13.6001 79.8932 13.1681 79.9492 12.6001H80.2252C80.2012 12.8161 80.1892 13.1041 80.1892 13.4641Z" fill="white"/>
<path d="M85.6056 6.37207C85.9576 6.37207 86.2336 6.41207 86.4336 6.49207C86.6416 6.56407 86.8536 6.67207 87.0696 6.81607C87.2456 6.92807 87.3816 6.98407 87.4776 6.98407C87.5496 6.98407 87.6056 6.94407 87.6456 6.86407C87.6856 6.77607 87.7176 6.64007 87.7416 6.45607H88.0176C87.9776 6.92007 87.9576 7.73607 87.9576 8.90407H87.6816C87.6336 8.25607 87.4456 7.71207 87.1176 7.27207C86.7976 6.82407 86.3296 6.60007 85.7136 6.60007C85.2816 6.60007 84.9296 6.73207 84.6576 6.99607C84.3856 7.25207 84.2496 7.58407 84.2496 7.99207C84.2496 8.29607 84.3176 8.56007 84.4536 8.78407C84.5976 9.00807 84.7776 9.20007 84.9936 9.36007C85.2096 9.52007 85.5176 9.72407 85.9176 9.97207L86.2656 10.1881C86.7696 10.5001 87.1656 10.7761 87.4536 11.0161C87.7496 11.2481 87.9856 11.5161 88.1616 11.8201C88.3376 12.1241 88.4256 12.4801 88.4256 12.8881C88.4256 13.6161 88.1856 14.1801 87.7056 14.5801C87.2256 14.9721 86.6176 15.1681 85.8816 15.1681C85.4976 15.1681 85.1816 15.1281 84.9336 15.0481C84.6936 14.9681 84.4616 14.8601 84.2376 14.7241C84.0616 14.6121 83.9256 14.5561 83.8296 14.5561C83.7576 14.5561 83.7016 14.6001 83.6616 14.6881C83.6216 14.7681 83.5896 14.9001 83.5656 15.0841H83.2896C83.3216 14.6441 83.3376 13.6841 83.3376 12.2041H83.6136C83.6696 13.0121 83.8696 13.6681 84.2136 14.1721C84.5576 14.6761 85.0856 14.9281 85.7976 14.9281C86.2296 14.9281 86.5976 14.7961 86.9016 14.5321C87.2056 14.2601 87.3576 13.8601 87.3576 13.3321C87.3576 12.8841 87.2056 12.5041 86.9016 12.1921C86.6056 11.8801 86.1336 11.5281 85.4856 11.1361C85.0136 10.8481 84.6296 10.5921 84.3336 10.3681C84.0456 10.1441 83.8096 9.87607 83.6256 9.56407C83.4416 9.24407 83.3496 8.87207 83.3496 8.44807C83.3496 7.77607 83.5656 7.26407 83.9976 6.91207C84.4296 6.55207 84.9656 6.37207 85.6056 6.37207Z" fill="white"/>
<path d="M97.798 6.50403C97.742 7.07203 97.714 7.58403 97.714 8.04003C97.714 8.44003 97.726 8.76803 97.75 9.02403H97.474C97.41 8.40803 97.33 7.95203 97.234 7.65603C97.138 7.35203 96.97 7.13203 96.73 6.99603C96.49 6.85203 96.122 6.78003 95.626 6.78003H94.978V13.6081C94.978 13.9441 95.01 14.1881 95.074 14.3401C95.138 14.4921 95.25 14.5961 95.41 14.6521C95.57 14.7081 95.83 14.7441 96.19 14.7601V15.0001C95.774 14.9761 95.186 14.9641 94.426 14.9641C93.626 14.9641 93.034 14.9761 92.65 15.0001V14.7601C93.01 14.7441 93.27 14.7081 93.43 14.6521C93.59 14.5961 93.702 14.4921 93.766 14.3401C93.83 14.1881 93.862 13.9441 93.862 13.6081V6.78003H93.214C92.718 6.78003 92.35 6.85203 92.11 6.99603C91.87 7.13203 91.702 7.35203 91.606 7.65603C91.51 7.95203 91.43 8.40803 91.366 9.02403H91.09C91.114 8.76803 91.126 8.44003 91.126 8.04003C91.126 7.58403 91.098 7.07203 91.042 6.50403C91.706 6.52803 92.834 6.54003 94.426 6.54003C96.01 6.54003 97.134 6.52803 97.798 6.50403Z" fill="white"/>
<defs>
<linearGradient id="paint0_linear" x1="0.5" y1="10" x2="19" y2="10" gradientUnits="userSpaceOnUse">
<stop offset="0.265625" stop-color="white"/>
<stop offset="0.791667" stop-color="white" stop-opacity="0"/>
</linearGradient>
</defs>
</svg>
