<svg width="745" height="906" viewBox="0 0 745 906" fill="none" xmlns="http://www.w3.org/2000/svg">
<path fill-rule="evenodd" clip-rule="evenodd" d="M276.603 343.187C364.861 295.569 397.806 185.419 350.187 97.1606C302.569 8.90236 192.419 -24.0426 104.161 23.576C15.9024 71.1946 -17.0426 181.345 30.576 269.603C78.1946 357.861 188.345 390.806 276.603 343.187ZM277.078 344.068C365.822 296.187 398.948 185.43 351.068 96.6858C303.187 7.94147 192.43 -25.1849 103.686 22.6959C14.9415 70.5767 -18.1849 181.333 29.6959 270.078C77.5767 358.822 188.333 391.948 277.078 344.068Z" fill="url(#paint0_linear)"/>
<path fill-rule="evenodd" clip-rule="evenodd" d="M548.536 859.958C728.954 762.616 796.3 537.447 698.958 357.03C601.616 176.612 376.448 109.266 196.03 206.608C15.6123 303.95 -51.7338 529.119 45.6082 709.536C142.95 889.954 368.119 957.3 548.536 859.958ZM549.011 860.838C729.915 763.234 797.443 537.459 699.838 356.555C602.234 175.651 376.459 108.124 195.555 205.728C14.6514 303.332 -52.8761 529.107 44.7281 710.011C142.332 890.915 368.108 958.442 549.011 860.838Z" fill="url(#paint1_linear)"/>
<defs>
<linearGradient id="paint0_linear" x1="33.2967" y1="276.752" x2="353.56" y2="101.306" gradientUnits="userSpaceOnUse">
<stop stop-color="#D4B098"/>
<stop offset="1" stop-color="#D4B098" stop-opacity="0"/>
</linearGradient>
<linearGradient id="paint1_linear" x1="52.0682" y1="723.616" x2="704.92" y2="365.974" gradientUnits="userSpaceOnUse">
<stop stop-color="#D4B098"/>
<stop offset="1" stop-color="#D4B098" stop-opacity="0"/>
</linearGradient>
</defs>
</svg>
