<svg width="98" height="20" viewBox="0 0 98 20" fill="none" xmlns="http://www.w3.org/2000/svg">
<path fill-rule="evenodd" clip-rule="evenodd" d="M10 0.5C4.75329 0.5 0.5 4.75329 0.5 10C0.5 15.2467 4.75329 19.5 10 19.5C15.2467 19.5 19.5 15.2467 19.5 10C19.5 4.75329 15.2467 0.5 10 0.5ZM9 1.5582C9.32799 1.51976 9.66169 1.5 10 1.5C14.6944 1.5 18.5 5.30558 18.5 10C18.5 14.6944 14.6944 18.5 10 18.5C9.66169 18.5 9.32799 18.4802 9 18.4418V1.5582ZM8 1.73663C4.27063 2.63603 1.5 5.99446 1.5 10C1.5 14.0055 4.27063 17.364 8 18.2634V1.73663Z" fill="url(#paint0_linear)"/>
<path d="M27.1361 6.33606C27.6161 6.33606 28.0241 6.40406 28.3601 6.54006C28.6961 6.67606 29.0241 6.86806 29.3441 7.11606C29.4321 7.18806 29.5081 7.22406 29.5721 7.22406C29.7321 7.22406 29.8361 6.98406 29.8841 6.50406H30.1601C30.1281 7.02406 30.1121 7.94406 30.1121 9.26406H29.8361C29.7481 8.74406 29.6681 8.37206 29.5961 8.14806C29.5241 7.91606 29.4041 7.69606 29.2361 7.48806C28.9961 7.17606 28.6881 6.94406 28.3121 6.79206C27.9441 6.63206 27.5441 6.55206 27.1121 6.55206C26.5921 6.55206 26.1361 6.72406 25.7441 7.06806C25.3601 7.41206 25.0601 7.90406 24.8441 8.54406C24.6281 9.17606 24.5201 9.92006 24.5201 10.7761C24.5201 11.6481 24.6361 12.3961 24.8681 13.0201C25.1001 13.6441 25.4201 14.1201 25.8281 14.4481C26.2441 14.7681 26.7121 14.9281 27.2321 14.9281C27.6321 14.9281 28.0201 14.8521 28.3961 14.7001C28.7721 14.5481 29.0681 14.3201 29.2841 14.0161C29.4441 13.7921 29.5601 13.5521 29.6321 13.2961C29.7041 13.0401 29.7721 12.6481 29.8361 12.1201H30.1121C30.1121 13.4961 30.1281 14.4561 30.1601 15.0001H29.8841C29.8601 14.7441 29.8241 14.5641 29.7761 14.4601C29.7361 14.3481 29.6761 14.2921 29.5961 14.2921C29.5321 14.2921 29.4481 14.3241 29.3441 14.3881C28.9841 14.6441 28.6401 14.8401 28.3121 14.9761C27.9841 15.1041 27.5881 15.1681 27.1241 15.1681C26.3641 15.1681 25.6961 14.9961 25.1201 14.6521C24.5521 14.3081 24.1081 13.8121 23.7881 13.1641C23.4761 12.5081 23.3201 11.7281 23.3201 10.8241C23.3201 9.94406 23.4801 9.16406 23.8001 8.48406C24.1281 7.80406 24.5801 7.27606 25.1561 6.90006C25.7401 6.52406 26.4001 6.33606 27.1361 6.33606Z" fill="#555248"/>
<path d="M37.0778 6.33606C37.8378 6.33606 38.5018 6.50806 39.0698 6.85206C39.6458 7.19606 40.0898 7.69606 40.4018 8.35206C40.7218 9.00006 40.8818 9.77606 40.8818 10.6801C40.8818 11.5601 40.7178 12.3401 40.3898 13.0201C40.0698 13.7001 39.6178 14.2281 39.0338 14.6041C38.4578 14.9801 37.8018 15.1681 37.0658 15.1681C36.3058 15.1681 35.6378 14.9961 35.0618 14.6521C34.4938 14.3081 34.0498 13.8121 33.7298 13.1641C33.4178 12.5081 33.2618 11.7281 33.2618 10.8241C33.2618 9.94406 33.4218 9.16406 33.7418 8.48406C34.0698 7.80406 34.5218 7.27606 35.0978 6.90006C35.6818 6.52406 36.3418 6.33606 37.0778 6.33606ZM37.0298 6.55206C36.5178 6.55206 36.0658 6.73206 35.6738 7.09206C35.2898 7.44406 34.9898 7.94006 34.7738 8.58006C34.5658 9.22006 34.4618 9.95206 34.4618 10.7761C34.4618 11.6081 34.5778 12.3401 34.8098 12.9721C35.0498 13.6041 35.3698 14.0921 35.7698 14.4361C36.1698 14.7801 36.6178 14.9521 37.1138 14.9521C37.6258 14.9521 38.0738 14.7761 38.4578 14.4241C38.8498 14.0641 39.1498 13.5641 39.3578 12.9241C39.5738 12.2841 39.6818 11.5521 39.6818 10.7281C39.6818 9.89606 39.5618 9.16406 39.3218 8.53206C39.0898 7.90006 38.7738 7.41206 38.3738 7.06806C37.9738 6.72406 37.5258 6.55206 37.0298 6.55206Z" fill="#555248"/>
<path d="M51.1466 6.74406C50.8666 6.76006 50.6586 6.80406 50.5226 6.87606C50.3866 6.94006 50.2946 7.05206 50.2466 7.21206C50.1986 7.36406 50.1746 7.59206 50.1746 7.89606V15.0601H49.8986L44.8586 7.27206V13.6081C44.8586 13.9201 44.8826 14.1521 44.9306 14.3041C44.9866 14.4561 45.0906 14.5681 45.2426 14.6401C45.3946 14.7041 45.6306 14.7441 45.9506 14.7601V15.0001C45.6626 14.9761 45.2546 14.9641 44.7266 14.9641C44.2466 14.9641 43.8746 14.9761 43.6106 15.0001V14.7601C43.8906 14.7441 44.0986 14.7041 44.2346 14.6401C44.3706 14.5681 44.4626 14.4561 44.5106 14.3041C44.5586 14.1441 44.5826 13.9121 44.5826 13.6081V7.77606C44.5826 7.47206 44.5586 7.25206 44.5106 7.11606C44.4626 6.98006 44.3706 6.88806 44.2346 6.84006C44.1066 6.79206 43.8986 6.76006 43.6106 6.74406V6.50406C43.8746 6.52806 44.2466 6.54006 44.7266 6.54006C45.0866 6.54006 45.3986 6.52806 45.6626 6.50406L49.8986 13.0321V7.89606C49.8986 7.58406 49.8706 7.35206 49.8146 7.20006C49.7666 7.04806 49.6666 6.94006 49.5146 6.87606C49.3626 6.80406 49.1266 6.76006 48.8066 6.74406V6.50406C49.0946 6.52806 49.5026 6.54006 50.0306 6.54006C50.5106 6.54006 50.8826 6.52806 51.1466 6.50406V6.74406Z" fill="#555248"/>
<path d="M62.3332 15.3481C62.1572 15.9561 61.9052 16.4121 61.5772 16.7161C61.1852 17.0761 60.6452 17.2561 59.9572 17.2561C59.5892 17.2561 59.2292 17.2001 58.8772 17.0881C58.5252 16.9761 58.0812 16.8001 57.5452 16.5601C56.9532 16.3041 56.4692 16.1121 56.0932 15.9841L55.8052 15.9001C55.4612 16.0201 55.1292 16.0801 54.8092 16.0801C54.4412 16.0801 54.2572 16.0001 54.2572 15.8401C54.2572 15.6721 54.4732 15.5881 54.9052 15.5881C55.1852 15.5881 55.4852 15.6201 55.8052 15.6841C56.0612 15.6121 56.3572 15.5001 56.6932 15.3481C56.9012 15.2521 57.0572 15.1841 57.1612 15.1441C56.4812 15.0801 55.8892 14.8681 55.3852 14.5081C54.8892 14.1481 54.5012 13.6561 54.2212 13.0321C53.9492 12.4001 53.8132 11.6641 53.8132 10.8241C53.8132 9.94406 53.9732 9.16406 54.2932 8.48406C54.6212 7.80406 55.0732 7.27606 55.6492 6.90006C56.2332 6.52406 56.8932 6.33606 57.6292 6.33606C58.3892 6.33606 59.0532 6.50806 59.6212 6.85206C60.1972 7.19606 60.6412 7.69606 60.9532 8.35206C61.2732 9.00006 61.4332 9.77606 61.4332 10.6801C61.4332 11.5121 61.2892 12.2561 61.0012 12.9121C60.7132 13.5601 60.3092 14.0801 59.7892 14.4721C59.2692 14.8561 58.6732 15.0801 58.0012 15.1441V15.1561C57.8092 15.1801 57.6412 15.2121 57.4972 15.2521C57.3612 15.3001 57.1772 15.3721 56.9452 15.4681C56.6572 15.5961 56.4172 15.6881 56.2252 15.7441C57.1132 15.9201 57.8652 16.0601 58.4812 16.1641C59.1052 16.2681 59.6212 16.3201 60.0292 16.3201C60.5972 16.3201 61.0452 16.2361 61.3732 16.0681C61.7092 15.9081 61.9692 15.6441 62.1532 15.2761L62.3332 15.3481ZM55.0132 10.7761C55.0132 11.6081 55.1292 12.3401 55.3612 12.9721C55.6012 13.6041 55.9212 14.0921 56.3212 14.4361C56.7212 14.7801 57.1692 14.9521 57.6652 14.9521C58.1772 14.9521 58.6252 14.7761 59.0092 14.4241C59.4012 14.0641 59.7012 13.5641 59.9092 12.9241C60.1252 12.2841 60.2332 11.5521 60.2332 10.7281C60.2332 9.89606 60.1132 9.16406 59.8732 8.53206C59.6412 7.90006 59.3252 7.41206 58.9252 7.06806C58.5252 6.72406 58.0772 6.55206 57.5812 6.55206C57.0692 6.55206 56.6172 6.73206 56.2252 7.09206C55.8412 7.44406 55.5412 7.94006 55.3252 8.58006C55.1172 9.22006 55.0132 9.95206 55.0132 10.7761Z" fill="#555248"/>
<path d="M71.5414 6.74406C71.2614 6.76006 71.0534 6.80406 70.9174 6.87606C70.7814 6.94006 70.6894 7.05206 70.6414 7.21206C70.5934 7.36406 70.5694 7.59206 70.5694 7.89606V11.5081C70.5694 12.0841 70.5294 12.5801 70.4494 12.9961C70.3774 13.4041 70.2534 13.7561 70.0774 14.0521C69.8774 14.3961 69.5814 14.6681 69.1894 14.8681C68.8054 15.0681 68.3694 15.1681 67.8814 15.1681C67.0014 15.1681 66.3294 14.9521 65.8654 14.5201C65.5134 14.1921 65.2774 13.8201 65.1574 13.4041C65.0374 12.9881 64.9774 12.3681 64.9774 11.5441V7.77606C64.9774 7.47206 64.9534 7.25206 64.9054 7.11606C64.8574 6.98006 64.7654 6.88806 64.6294 6.84006C64.5014 6.79206 64.2934 6.76006 64.0054 6.74406V6.50406C64.3414 6.52806 64.8534 6.54006 65.5414 6.54006C66.1894 6.54006 66.6974 6.52806 67.0654 6.50406V6.74406C66.7774 6.76006 66.5654 6.79206 66.4294 6.84006C66.3014 6.88806 66.2134 6.98006 66.1654 7.11606C66.1174 7.25206 66.0934 7.47206 66.0934 7.77606V11.7481C66.0934 12.3881 66.1374 12.9201 66.2254 13.3441C66.3134 13.7681 66.4934 14.1081 66.7654 14.3641C67.0454 14.6201 67.4534 14.7481 67.9894 14.7481C68.8374 14.7481 69.4334 14.4761 69.7774 13.9321C70.1214 13.3881 70.2934 12.6241 70.2934 11.6401V7.89606C70.2934 7.46406 70.2134 7.16806 70.0534 7.00806C69.9014 6.84806 69.6174 6.76006 69.2014 6.74406V6.50406C69.4894 6.52806 69.8974 6.54006 70.4254 6.54006C70.9054 6.54006 71.2774 6.52806 71.5414 6.50406V6.74406Z" fill="#555248"/>
<path d="M80.1891 13.4641C80.1891 13.9201 80.2171 14.4321 80.2731 15.0001C79.7291 14.9761 78.8131 14.9641 77.5251 14.9641C75.9891 14.9641 74.8291 14.9761 74.0451 15.0001V14.7601C74.3331 14.7441 74.5411 14.7121 74.6691 14.6641C74.8051 14.6161 74.8971 14.5241 74.9451 14.3881C74.9931 14.2521 75.0171 14.0321 75.0171 13.7281V7.77606C75.0171 7.47206 74.9931 7.25206 74.9451 7.11606C74.8971 6.98006 74.8051 6.88806 74.6691 6.84006C74.5411 6.79206 74.3331 6.76006 74.0451 6.74406V6.50406C74.8291 6.52806 75.9891 6.54006 77.5251 6.54006C78.7011 6.54006 79.5371 6.52806 80.0331 6.50406C79.9771 7.03206 79.9491 7.50406 79.9491 7.92006C79.9491 8.23206 79.9611 8.48006 79.9851 8.66406H79.7091C79.6531 8.14406 79.5811 7.76006 79.4931 7.51206C79.4051 7.25606 79.2571 7.07206 79.0491 6.96006C78.8411 6.84006 78.5251 6.78006 78.1011 6.78006H77.1051C76.8171 6.78006 76.6051 6.80406 76.4691 6.85206C76.3411 6.89206 76.2531 6.98006 76.2051 7.11606C76.1571 7.25206 76.1331 7.47206 76.1331 7.77606V10.6081H76.9251C77.2051 10.6081 77.4211 10.5441 77.5731 10.4161C77.7251 10.2801 77.8251 10.1241 77.8731 9.94806C77.9291 9.76406 77.9731 9.53606 78.0051 9.26406L78.0411 9.02406H78.3171C78.2931 9.36006 78.2811 9.73606 78.2811 10.1521V10.7281C78.2811 11.1361 78.3051 11.7041 78.3531 12.4321H78.0771C78.0691 12.3761 78.0451 12.1841 78.0051 11.8561C77.9651 11.5201 77.8531 11.2681 77.6691 11.1001C77.4931 10.9321 77.2451 10.8481 76.9251 10.8481H76.1331V13.7281C76.1331 14.0321 76.1571 14.2521 76.2051 14.3881C76.2531 14.5241 76.3411 14.6161 76.4691 14.6641C76.6051 14.7041 76.8171 14.7241 77.1051 14.7241H77.9811C78.4771 14.7241 78.8531 14.6601 79.1091 14.5321C79.3731 14.3961 79.5651 14.1841 79.6851 13.8961C79.8051 13.6001 79.8931 13.1681 79.9491 12.6001H80.2251C80.2011 12.8161 80.1891 13.1041 80.1891 13.4641Z" fill="#555248"/>
<path d="M85.6056 6.37206C85.9576 6.37206 86.2336 6.41206 86.4336 6.49206C86.6416 6.56406 86.8536 6.67206 87.0696 6.81606C87.2456 6.92806 87.3816 6.98406 87.4776 6.98406C87.5496 6.98406 87.6056 6.94406 87.6456 6.86406C87.6856 6.77606 87.7176 6.64006 87.7416 6.45606H88.0176C87.9776 6.92006 87.9576 7.73606 87.9576 8.90406H87.6816C87.6336 8.25606 87.4456 7.71206 87.1176 7.27206C86.7976 6.82406 86.3296 6.60006 85.7136 6.60006C85.2816 6.60006 84.9296 6.73206 84.6576 6.99606C84.3856 7.25206 84.2496 7.58406 84.2496 7.99206C84.2496 8.29606 84.3176 8.56006 84.4536 8.78406C84.5976 9.00806 84.7776 9.20006 84.9936 9.36006C85.2096 9.52006 85.5176 9.72406 85.9176 9.97206L86.2656 10.1881C86.7696 10.5001 87.1656 10.7761 87.4536 11.0161C87.7496 11.2481 87.9856 11.5161 88.1616 11.8201C88.3376 12.1241 88.4256 12.4801 88.4256 12.8881C88.4256 13.6161 88.1856 14.1801 87.7056 14.5801C87.2256 14.9721 86.6176 15.1681 85.8816 15.1681C85.4976 15.1681 85.1816 15.1281 84.9336 15.0481C84.6936 14.9681 84.4616 14.8601 84.2376 14.7241C84.0616 14.6121 83.9256 14.5561 83.8296 14.5561C83.7576 14.5561 83.7016 14.6001 83.6616 14.6881C83.6216 14.7681 83.5896 14.9001 83.5656 15.0841H83.2896C83.3216 14.6441 83.3376 13.6841 83.3376 12.2041H83.6136C83.6696 13.0121 83.8696 13.6681 84.2136 14.1721C84.5576 14.6761 85.0856 14.9281 85.7976 14.9281C86.2296 14.9281 86.5976 14.7961 86.9016 14.5321C87.2056 14.2601 87.3576 13.8601 87.3576 13.3321C87.3576 12.8841 87.2056 12.5041 86.9016 12.1921C86.6056 11.8801 86.1336 11.5281 85.4856 11.1361C85.0136 10.8481 84.6296 10.5921 84.3336 10.3681C84.0456 10.1441 83.8096 9.87606 83.6256 9.56406C83.4416 9.24406 83.3496 8.87206 83.3496 8.44806C83.3496 7.77606 83.5656 7.26406 83.9976 6.91206C84.4296 6.55206 84.9656 6.37206 85.6056 6.37206Z" fill="#555248"/>
<path d="M97.7981 6.50406C97.7421 7.07206 97.7141 7.58406 97.7141 8.04006C97.7141 8.44006 97.7261 8.76806 97.7501 9.02406H97.4741C97.4101 8.40806 97.3301 7.95206 97.2341 7.65606C97.1381 7.35206 96.9701 7.13206 96.7301 6.99606C96.4901 6.85206 96.1221 6.78006 95.6261 6.78006H94.9781V13.6081C94.9781 13.9441 95.0101 14.1881 95.0741 14.3401C95.1381 14.4921 95.2501 14.5961 95.4101 14.6521C95.5701 14.7081 95.8301 14.7441 96.1901 14.7601V15.0001C95.7741 14.9761 95.1861 14.9641 94.4261 14.9641C93.6261 14.9641 93.0341 14.9761 92.6501 15.0001V14.7601C93.0101 14.7441 93.2701 14.7081 93.4301 14.6521C93.5901 14.5961 93.7021 14.4921 93.7661 14.3401C93.8301 14.1881 93.8621 13.9441 93.8621 13.6081V6.78006H93.2141C92.7181 6.78006 92.3501 6.85206 92.1101 6.99606C91.8701 7.13206 91.7021 7.35206 91.6061 7.65606C91.5101 7.95206 91.4301 8.40806 91.3661 9.02406H91.0901C91.1141 8.76806 91.1261 8.44006 91.1261 8.04006C91.1261 7.58406 91.0981 7.07206 91.0421 6.50406C91.7061 6.52806 92.8341 6.54006 94.4261 6.54006C96.0101 6.54006 97.1341 6.52806 97.7981 6.50406Z" fill="#555248"/>
<defs>
<linearGradient id="paint0_linear" x1="0.5" y1="10" x2="19" y2="10" gradientUnits="userSpaceOnUse">
<stop offset="0.265625" stop-color="#555248"/>
<stop offset="0.791667" stop-color="#1B1A17" stop-opacity="0"/>
</linearGradient>
</defs>
</svg>
